# xmcd
#
# Track frame offsets:
#	187
#	11067
#	30420
#	46647
#	61560
#	75005
#	86455
#	110752
#	124970
#	139265
#	156757
#
# Disc length: 2237 seconds
#
# Revision: 0
# Processed by: cddbd v1.5.2PL0 Copyright (c) Steve Scherf et al.
# Submitted via: EasyCDDAExtractor 10.2.0.1
#
DISCID=7808bb0b
DTITLE=Various Artist - MCA-Christmas Sampler
DYEAR=1900
DGENRE=Gospel
TTITLE0=Gearge Strait - Winter Wonderland
TTITLE1=Steve Wariner - Tennessee Christmas
TTITLE2=Reba McEntire - Silent Night
TTITLE3=Lee Greenwood - Lone Star Christmas
TTITLE4=Loretta Lynn - The First Noel
TTITLE5=Oak Ridge Boys - Thank God For Kids
TTITLE6=Reba McEntire - The Christmas Guest
TTITLE7=George Strait - When It's Christmas Time In Texas
TTITLE8=Lee Greenwood - The Christmas Song
TTITLE9=Oak Ridge Boys - When You Give It Away
TTITLE10=Ray Stevens - Greatest Little Christmas Ever Wuz
EXTD=
EXTT0=
EXTT1=
EXTT2=
EXTT3=
EXTT4=
EXTT5=
EXTT6=
EXTT7=
EXTT8=
EXTT9=
EXTT10=
PLAYORDER=
